<svg viewBox="0 0 1024 1024" xmlns="http://www.w3.org/2000/svg"><path d="M824.109782 308.018297v657.910829H199.608046V308.018297H142.891595v657.910829a56.998622 56.998622 0 0 0 56.772886 56.716451h624.445301c31.321025 0 56.716451-25.564729 56.716451-56.716451V308.018297h-56.716451zM596.453899 340.975916h56.82932v487.817912h-56.82932V340.975916z m142.55299-170.375089V56.998622A56.998622 56.998622 0 0 0 682.234004 0.282171H341.42739c-31.321025 0-56.716451 25.564729-56.71645 56.716451v113.658639H0.620777v56.716451h113.658639v0.620777h56.716451v-0.677212h681.613226v0.677212h56.772886v-0.677212h113.715073V170.600827h-284.090163z m-56.772885 0H341.42739V56.885754h340.806614v113.715073zM370.43461 340.975916h56.772885v487.817912H370.43461V340.975916z"/></svg>