<?xml version="1.0" standalone="no"?><!DOCTYPE svg PUBLIC "-//W3C//DTD SVG 1.1//EN" "http://www.w3.org/Graphics/SVG/1.1/DTD/svg11.dtd"><svg t="1616397416223" class="icon" viewBox="0 0 1024 1024" version="1.1" xmlns="http://www.w3.org/2000/svg" p-id="5853" xmlns:xlink="http://www.w3.org/1999/xlink" width="200" height="200"><defs><style type="text/css"></style></defs><path d="M204.8 512V281.6c0-12.8 10.24-25.6 25.6-25.6h307.2c15.36 0 25.6 10.24 25.6 25.6V512c0 12.8-10.24 25.6-25.6 25.6H512v51.2h51.2c28.16 0 51.2-23.04 51.2-51.2V256c0-28.16-23.04-51.2-51.2-51.2H204.8c-28.16 0-51.2 23.04-51.2 51.2v281.6c0 28.16 23.04 51.2 51.2 51.2h153.6v-51.2h-128c-12.8 0-25.6-10.24-25.6-25.6z m0 0" p-id="5854"></path><path d="M888 792H200V168c0-4.4-3.6-8-8-8h-56c-4.4 0-8 3.6-8 8v688c0 4.4 3.6 8 8 8h752c4.4 0 8-3.6 8-8v-56c0-4.4-3.6-8-8-8zM288 712h56c4.4 0 8-3.6 8-8V560c0-4.4-3.6-8-8-8h-56c-4.4 0-8 3.6-8 8v144c0 4.4 3.6 8 8 8zM440 712h56c4.4 0 8-3.6 8-8V384c0-4.4-3.6-8-8-8h-56c-4.4 0-8 3.6-8 8v320c0 4.4 3.6 8 8 8zM592 712h56c4.4 0 8-3.6 8-8V462c0-4.4-3.6-8-8-8h-56c-4.4 0-8 3.6-8 8v242c0 4.4 3.6 8 8 8zM744 712h56c4.4 0 8-3.6 8-8V304c0-4.4-3.6-8-8-8h-56c-4.4 0-8 3.6-8 8v400c0 4.4 3.6 8 8 8z" p-id="5855"></path></svg>